**ABCDEFGHIJKLMNOPQRSTUVWXYZabcdefghijklmnopqrstuvwxyz**************************
**PARASOLID !"#$%&'()*+,-./:;<=>?@[\]^_`{|}~0123456789**************************
**PART1;
MC=AMD64;
MC_MODEL=Intel64 Family 6 Model 158 Stepping 9, GenuineIntel;
MC_ID=unknown;
OS=Windows_NT;
OS_RELEASE=unknown;
FRU=Parasolid Version 24.1, build 257,  2-12-2013;
APPL=SolidWorks 2013-2013086;
SITE=;
USER=unknown;
FORMAT=text;
GUISE=transmit;
KEY=Disco_Inercia;
FILE=Disco_Inercia.x_t;
DATE=Mon Jan 11 17:38:13 2021;
**PART2;
SCH=SCH_2401257_20000;
USFLD_SIZE=0;
**PART3;
**END_OF_HEADER*****************************************************************
T51 : TRANSMIT FILE created by modeller version 240125723 SCH_2401257_20000_1300
6189 0 12 27 CCCCCCCCCCCCCCCCCCCCCCCA16 index_map_offset0 0 1 dA9 index_map82 0
 A17 node_id_index_map82 0 A20 schema_embedding_map82 0 Z1 1620 0 2 0 0 0 0 1e3
 1e-8 0 3 0 1 0 1 1 4 5 6 7 8 9 10 0 0 0 0 70 11 CI9 list_type0 0 1 uI10 notrans
mit0 0 1 lCCCDCCDI12 finger_index0 0 1 dI12 finger_block1012 0 CZ2 0 4 T1 0 0 2
 20 1 11 11 13 255 4 29 0 1 0 12 0 0 13 0 51 255 5 1197 0 14 15 0 0 +-.009687336
38631333 .004 .0107891386930751 0 -1 0 .002 0 0 -1 31 255 6 914 0 9 16 0 0 --.00
968733638631333 .004 .0107891386930751 0 1 0 0 0 1 .002 29 255 7 784 0 10 17 0 -
.00835115205716666 .004 .00930098163196128 19 255 8 7 0 1 13 0 18 V16 255 9 887
 0 ?19 0 20 6 0 0 1 18 255 10 782 0 19 0 21 7 ?1 17 255 19 0 22 23 24 10 25 9 0
 26 +18 21 779 0 27 10 28 17 ?1 17 27 0 29 26 30 21 31 32 0 23 +18 28 776 0 33 2
1 34 35 ?1 29 17 781 0 21 35 7 .00835115205716666 .004 .00930098163196128 29 35
 778 0 28 36 17 -.00835115205716666 0 .00930098163196128 29 36 775 0 34 37 35 .0
0835115205716666 0 .00930098163196128 18 34 773 0 38 28 39 36 ?1 29 37 762 0 39
 40 36 -.02268350162429225 .004 .01598307711489655 18 39 760 0 41 34 42 37 ?1 29
 40 759 0 42 43 37 -.01068733638631332 .004 .00905708788550621 18 42 757 0 44 39
 45 40 ?1 29 43 756 0 45 46 40 -.02268350162429225 0 .01598307711489655 18 45 75
4 0 47 42 48 43 ?1 29 46 753 0 48 49 43 -.01068733638631332 0 .00905708788550621
 18 48 751 0 50 45 51 46 ?1 29 49 740 0 51 52 46 .01223046240199424 .004 .002581
81901639236 18 51 738 0 53 48 54 49 ?1 29 52 737 0 54 55 49 .00387931034482759 .
004 -.01188280064835364 18 54 735 0 56 51 57 52 ?1 29 55 734 0 57 58 52 .0122304
6240199424 0 .00258181901639236 18 57 732 0 59 54 60 55 ?1 29 58 731 0 60 61 55
 .00387931034482759 0 -.01188280064835364 18 60 729 0 62 57 63 58 ?1 29 61 718 0
 63 64 58 .0025 .004 -.01378404875209022 18 63 716 0 65 60 66 61 ?1 29 64 715 0
 66 67 61 .0025 .004 -.02763602721087095 18 66 713 0 68 63 69 64 ?1 29 67 712 0
 69 70 64 .0025 0 -.01378404875209022 18 69 710 0 71 66 72 67 ?1 29 70 709 0 72
 73 67 .0025 0 -.02763602721087095 18 72 707 0 74 69 75 70 ?1 29 73 696 0 75 76
 70 .01068733638631332 .004 .00905708788550621 18 75 694 0 77 72 78 73 ?1 29 76
 693 0 78 79 73 .02268350162429225 .004 .01598307711489655 18 78 691 0 80 75 81
 76 ?1 29 79 690 0 81 82 76 .01068733638631332 0 .00905708788550621 18 81 688 0
 83 78 84 79 ?1 29 82 687 0 84 85 79 .02268350162429225 0 .01598307711489655 18
 84 685 0 86 81 87 82 ?1 29 85 674 0 87 88 82 .02323232316888455 .004 .018980494
20264155 18 87 672 0 89 84 90 85 ?1 29 88 671 0 90 91 85 -.02323232316888455 .00
4 .01898049420264155 18 90 669 0 92 87 93 88 ?1 29 91 668 0 93 94 88 .0232323231
6888455 0 .01898049420264155 18 93 666 0 95 90 96 91 ?1 29 94 665 0 96 97 91 -.0
2323232316888455 0 .01898049420264155 18 96 663 0 98 93 99 94 ?1 29 97 652 0 99
 100 94 .00482142857142857 .004 -.02961002915450455 18 99 650 0 101 96 102 97 ?1
 29 100 649 0 102 103 97 .0280537517403131 .004 .01062953495186302 18 102 647 0
 104 99 105 100 ?1 29 103 646 0 105 106 100 .00482142857142857 0 -.0296100291545
0455 18 105 644 0 107 102 108 103 ?1 29 106 643 0 108 109 103 .0280537517403131
 0 .01062953495186302 18 108 641 0 110 105 111 106 ?1 29 109 630 0 111 112 106 .
02518350162429225 .004 .01165295009597436 18 111 628 0 113 108 114 109 ?1 29 112
 627 0 114 115 109 .01318733638631332 .004 .00472696086658402 18 114 625 0 116 1
11 117 112 ?1 29 115 624 0 117 118 112 .02518350162429225 0 .01165295009597436 1
8 117 622 0 119 114 120 115 ?1 29 118 621 0 120 121 115 .01318733638631332 0 .00
472696086658402 18 120 619 0 122 117 123 118 ?1 29 121 608 0 123 124 118 -.00387
9310344827585 .004 -.01188280064835364 18 123 606 0 125 120 126 121 ?1 29 124 60
5 0 126 127 121 -.01223046240199424 .004 .00258181901639236 18 126 603 0 128 123
 129 124 ?1 29 127 602 0 129 130 124 -.003879310344827585 0 -.01188280064835364
 18 129 600 0 131 126 132 127 ?1 29 130 599 0 132 133 127 -.01223046240199424 0
 .00258181901639236 18 132 597 0 134 129 135 130 ?1 29 133 586 0 135 136 130 -.0
025 .004 -.02763602721087095 18 135 584 0 137 132 138 133 ?1 29 136 583 0 138 13
9 133 -.0025 .004 -.01378404875209022 18 138 581 0 140 135 141 136 ?1 29 139 580
 0 141 142 136 -.0025 0 -.02763602721087095 18 141 578 0 143 138 144 139 ?1 29 1
42 577 0 144 145 139 -.0025 0 -.01378404875209022 18 144 575 0 146 141 147 142 ?
1 29 145 564 0 147 148 142 -.01318733638631332 .004 .00472696086658402 18 147 56
2 0 149 144 150 145 ?1 29 148 561 0 150 151 145 -.02518350162429225 .004 .011652
95009597436 18 150 559 0 152 147 153 148 ?1 29 151 558 0 153 154 148 -.013187336
38631332 0 .00472696086658402 18 153 556 0 155 150 156 151 ?1 29 154 555 0 156 1
57 151 -.02518350162429225 0 .01165295009597436 18 156 553 0 158 153 159 154 ?1
 29 157 542 0 159 160 154 -.0280537517403131 .004 .01062953495186302 18 159 540
 0 161 156 162 157 ?1 29 160 539 0 162 163 157 -.00482142857142857 .004 -.029610
02915450455 18 162 537 0 164 159 165 160 ?1 29 163 536 0 165 166 160 -.028053751
7403131 0 .01062953495186302 18 165 534 0 167 162 168 163 ?1 29 166 533 0 168 0
 163 -.00482142857142857 0 -.02961002915450455 18 168 531 0 169 165 0 166 ?1 17
 169 0 170 171 172 168 143 173 0 174 +15 255 170 52 0 175 176 177 17 171 0 170 1
58 169 165 174 178 0 0 +17 172 0 170 169 146 141 179 180 0 0 +17 143 0 181 182 1
83 141 169 173 0 184 -16 173 803 0 ?169 185 186 187 0 0 1 17 174 0 188 164 189 1
68 171 178 0 183 -15 188 124 0 190 191 0 17 164 0 188 190 174 162 183 192 0 193
 +17 189 0 188 174 190 165 194 195 0 171 +16 178 532 0 ?171 196 180 197 0 0 1 17
 183 0 181 143 198 168 164 192 0 0 -15 181 976 0 198 199 0 17 198 0 181 183 182
 162 137 185 0 0 -16 192 543 0 ?164 195 200 201 0 0 1 16 195 548 0 ?189 202 192
 203 0 0 1 16 200 4 0 ?204 192 205 206 0 0 1 30 255 201 545 0 192 207 203 0 --.0
0482142857142857 .004 -.02961002915450455 0 -1 0 31 207 23 0 205 206 201 0 +0 0
 0 0 1 0 0 0 1 .04 30 203 550 0 195 201 208 0 +-.0280537517403131 .004 .01062953
495186302 0 -1 0 30 208 567 0 202 203 209 0 --.01318733638631332 0 .004726960866
58402 0 1 0 16 202 565 0 ?210 211 195 208 0 0 1 30 209 572 0 211 208 212 0 +-.02
518350162429225 .004 .01165295009597436 0 1 0 16 211 570 0 ?152 213 202 209 0 0
 1 30 212 589 0 213 209 214 0 +-.0025 .004 -.01378404875209022 0 1 0 16 213 587
 0 ?140 215 211 212 0 0 1 30 214 594 0 215 212 216 0 --.0025 0 -.027636027210870
95 0 1 0 16 215 592 0 ?184 217 213 214 0 0 1 30 216 611 0 217 214 218 0 +-.00387
931034482759 .004 -.01188280064835364 0 -1 0 16 217 609 0 ?219 220 215 216 0 0 1
 30 218 616 0 220 216 221 0 --.01223046240199424 .004 .00258181901639236 0 -1 0
 16 220 614 0 ?128 222 217 218 0 0 1 30 221 633 0 222 218 223 0 +.01318733638631
332 .004 .00472696086658402 0 1 0 16 222 631 0 ?116 224 220 221 0 0 1 30 223 638
 0 224 221 225 0 -.02518350162429225 0 .01165295009597436 0 1 0 16 224 636 0 ?22
6 227 222 223 0 0 1 30 225 655 0 227 223 228 0 +.00482142857142857 .004 -.029610
02915450455 0 -1 0 16 227 653 0 ?229 230 224 225 0 0 1 30 228 660 0 230 225 231
 0 -.0280537517403131 .004 .01062953495186302 0 -1 0 16 230 658 0 ?104 232 227 2
28 0 0 1 30 231 677 0 232 228 233 0 --.02323232316888455 .004 .01898049420264155
 0 -1 0 16 232 675 0 ?92 234 230 231 0 0 1 30 233 682 0 234 231 235 0 +.02323232
316888455 .004 .01898049420264155 0 -1 0 16 234 680 0 ?236 237 232 233 0 0 1 30
 235 699 0 237 233 238 0 -.01068733638631332 0 .00905708788550621 0 1 0 16 237 6
97 0 ?239 240 234 235 0 0 1 30 238 704 0 240 235 241 0 +.02268350162429225 .004
 .01598307711489655 0 1 0 16 240 702 0 ?80 242 237 238 0 0 1 30 241 721 0 242 23
8 243 0 -.0025 0 -.01378404875209022 0 1 0 16 242 719 0 ?244 245 240 241 0 0 1 3
0 243 726 0 245 241 246 0 +.0025 .004 -.02763602721087095 0 1 0 16 245 724 0 ?68
 247 242 243 0 0 1 30 246 743 0 247 243 248 0 +.01223046240199424 .004 .00258181
901639236 0 -1 0 16 247 741 0 ?249 250 245 246 0 0 1 30 248 748 0 250 246 251 0
 -.00387931034482759 .004 -.01188280064835364 0 -1 0 16 250 746 0 ?56 252 247 24
8 0 0 1 30 251 765 0 252 248 253 0 +-.01068733638631332 .004 .00905708788550621
 0 1 0 16 252 763 0 ?44 254 250 251 0 0 1 30 253 770 0 254 251 255 0 --.02268350
162429225 0 .01598307711489655 0 1 0 16 254 768 0 ?256 257 252 253 0 0 1 30 255
 787 0 257 253 258 0 +-.00835115205716666 .004 .00930098163196128 0 -1 0 16 257
 785 0 ?259 32 254 255 0 0 1 30 258 792 0 32 255 260 0 -.00835115205716666 .004
 .00930098163196128 0 -1 0 16 32 790 0 ?27 261 257 258 0 0 1 31 260 891 0 261 25
8 262 0 +-.02618350162429225 0 .00992089928840549 0 1 0 0 0 1 .002 16 261 795 0
 ?158 186 32 260 0 0 1 31 262 892 0 186 260 187 0 --.02618350162429225 .004 .009
92089928840549 0 1 0 0 0 1 .002 16 186 799 0 ?161 173 261 262 0 0 1 31 187 893 0
 173 262 263 0 +-.0045 0 -.02763602721087095 0 1 0 0 0 1 .002 31 263 894 0 185 1
87 264 0 --.0045 .004 -.02763602721087095 0 1 0 0 0 1 .002 16 185 807 0 ?137 265
 173 263 0 0 1 31 264 895 0 265 263 266 0 +-.01418733638631332 0 .00299491005901
514 0 1 0 0 0 1 .002 16 265 811 0 ?134 267 185 264 0 0 1 31 266 896 0 267 264 26
8 0 --.01418733638631332 .004 .00299491005901514 0 1 0 0 0 1 .002 16 267 815 0 ?
149 269 265 266 0 0 1 31 268 897 0 269 266 270 0 +-.0045 0 -.01378404875209022 0
 1 0 0 0 1 .002 16 269 819 0 ?146 271 267 268 0 0 1 31 270 898 0 271 268 272 0 -
-.0045 .004 -.01378404875209022 0 1 0 0 0 1 .002 16 271 823 0 ?125 273 269 270 0
 0 1 31 272 899 0 273 270 274 0 +.02618350162429225 0 .00992089928840549 0 1 0 0
 0 1 .002 16 273 827 0 ?110 275 271 272 0 0 1 31 274 900 0 275 272 276 0 -.02618
350162429225 .004 .00992089928840549 0 1 0 0 0 1 .002 16 275 831 0 ?113 277 273
 274 0 0 1 31 276 901 0 277 274 278 0 +.02168350162429225 0 .01771512792246545 0
 1 0 0 0 1 .002 16 277 835 0 ?86 279 275 276 0 0 1 31 278 902 0 279 276 280 0 -.
02168350162429225 .004 .01771512792246545 0 1 0 0 0 1 .002 16 279 839 0 ?89 281
 277 278 0 0 1 31 280 903 0 281 278 282 0 +.0045 0 -.02763602721087095 0 1 0 0 0
 1 .002 16 281 843 0 ?74 283 279 280 0 0 1 31 282 904 0 283 280 284 0 -.0045 .00
4 -.02763602721087095 0 1 0 0 0 1 .002 16 283 847 0 ?101 285 281 282 0 0 1 31 28
4 905 0 285 282 286 0 +.0045 0 -.01378404875209022 0 1 0 0 0 1 .002 16 285 851 0
 ?62 287 283 284 0 0 1 31 286 906 0 287 284 288 0 -.0045 .004 -.0137840487520902
2 0 1 0 0 0 1 .002 16 287 855 0 ?65 289 285 286 0 0 1 31 288 907 0 289 286 290 0
 +-.02168350162429225 0 .01771512792246545 0 1 0 0 0 1 .002 16 289 859 0 ?98 291
 287 288 0 0 1 31 290 908 0 291 288 292 0 --.02168350162429225 .004 .01771512792
246545 0 1 0 0 0 1 .002 16 291 863 0 ?41 293 289 290 0 0 1 31 292 909 0 293 290
 294 0 +.01418733638631332 0 .00299491005901514 0 1 0 0 0 1 .002 16 293 867 0 ?1
22 295 291 292 0 0 1 31 294 910 0 295 292 296 0 -.01418733638631332 .004 .002994
91005901514 0 1 0 0 0 1 .002 16 295 871 0 ?53 297 293 294 0 0 1 31 296 911 0 297
 294 298 0 +.00968733638631333 0 .0107891386930751 0 1 0 0 0 1 .002 16 297 875 0
 ?38 299 295 296 0 0 1 31 298 912 0 299 296 16 0 -.00968733638631333 .004 .01078
91386930751 0 1 0 0 0 1 .002 16 299 879 0 ?77 20 297 298 0 0 1 31 16 913 0 20 29
8 6 0 +-.00968733638631333 0 .0107891386930751 0 1 0 0 0 1 .002 16 20 883 0 ?50
 9 299 16 0 0 1 17 50 0 300 301 302 48 33 20 0 303 +15 300 350 0 301 176 0 17 30
1 0 300 98 50 45 303 304 0 0 +17 302 0 300 50 38 28 30 305 0 0 +17 33 0 306 307
 308 28 50 20 0 259 -17 303 0 309 44 256 48 301 304 0 308 -15 309 426 0 310 311
 0 17 44 0 309 310 303 42 308 252 0 24 +17 256 0 309 303 310 45 312 254 0 301 +1
6 304 752 0 ?301 313 305 314 0 0 1 17 308 0 306 33 25 48 44 252 0 0 -15 306 1186
 0 25 14 0 17 25 0 306 308 307 42 19 9 0 0 -17 307 0 306 25 33 10 259 257 0 0 -1
7 259 0 29 30 26 28 307 257 0 302 +15 29 422 0 30 315 0 17 30 0 29 27 259 34 302
 305 0 31 -17 26 0 29 259 27 10 23 316 0 307 +17 23 0 22 77 19 21 26 316 0 317 -
16 316 780 0 ?26 318 319 320 0 0 1 16 318 758 0 ?310 321 316 322 0 0 1 16 319 69
2 0 ?323 316 313 324 0 0 1 31 320 450 0 316 324 322 0 +0 .004 0 0 -1 0 0 0 1 .01
25 30 324 451 0 319 325 320 0 +.00935660171779822 .004 .00828878786641905 -.8660
25403784439 0 -.5 30 322 449 0 318 320 326 0 +-.00935660171779822 .004 .00828878
786641904 -.866025403784439 0 .5 31 326 448 0 327 322 328 0 +0 0 0 0 1 0 0 0 1 .
03 16 327 664 0 ?329 330 331 326 0 0 1 30 328 447 0 330 326 332 0 +.009356601717
79822 0 .00828878786641905 -.866025403784439 0 -.5 16 330 686 0 ?333 305 327 328
 0 0 1 31 332 446 0 305 328 314 0 +0 0 0 0 -1 0 0 0 1 .0125 16 305 774 0 ?302 30
4 330 332 0 0 1 30 314 445 0 304 332 334 0 +-.00935660171779822 0 .0082887878664
1904 -.866025403784439 0 .5 31 334 332 0 335 314 336 0 +0 .004 0 0 1 0 0 0 1 .00
5 16 335 312 0 ?337 338 321 334 0 0 1 31 336 331 0 321 334 339 0 +0 0 0 0 1 0 0
 0 1 .005 16 321 309 0 ?340 335 318 336 0 0 1 31 339 284 0 341 336 342 0 +0 .004
 0 0 -1 0 0 0 1 .0125 16 341 736 0 ?343 344 345 339 0 0 1 30 342 283 0 344 339 3
46 0 +.02714039397150995 .004 .01278276241941564 .866025403784439 0 .5 16 344 62
6 0 ?347 348 341 342 0 0 1 31 346 282 0 348 342 349 0 +0 .004 0 0 1 0 0 0 1 .03
 16 348 648 0 ?350 351 344 346 0 0 1 30 349 281 0 351 346 352 0 +.0025 .004 -.02
989565185775345 0 0 1 16 351 714 0 ?353 354 348 349 0 0 1 31 352 280 0 338 349 3
55 0 +0 0 0 0 -1 0 0 0 1 .0125 16 338 730 0 ?356 357 335 352 0 0 1 30 355 279 0
 357 352 358 0 +.02714039397150995 0 .01278276241941564 .866025403784439 0 .5 16
 357 620 0 ?359 360 338 355 0 0 1 31 358 278 0 360 355 361 0 +0 0 0 0 1 0 0 0 1
 .03 16 360 642 0 ?362 345 357 358 0 0 1 30 361 277 0 345 358 363 0 +.0025 0 -.0
2989565185775345 0 0 1 16 345 708 0 ?364 341 360 361 0 0 1 31 363 154 0 365 361
 366 0 +0 .004 0 0 -1 0 0 0 1 .0125 16 365 604 0 ?367 368 196 363 0 0 1 30 366 1
53 0 368 363 369 0 +-.0025 .004 -.02989565185775345 0 0 -1 16 368 582 0 ?370 371
 365 366 0 0 1 31 369 152 0 371 366 372 0 +0 .004 0 0 1 0 0 0 1 .03 16 371 538 0
 ?190 373 368 369 0 0 1 30 372 151 0 373 369 374 0 +-.01185660171779822 .004 .00
395866084749685 .866025403784439 0 -.5 16 373 560 0 ?375 205 371 372 0 0 1 31 37
4 150 0 354 372 376 0 +0 0 0 0 -1 0 0 0 1 .0125 16 354 598 0 ?377 180 351 374 0
 0 1 30 376 149 0 180 374 197 0 +-.0025 0 -.02989565185775345 0 0 -1 16 180 576
 0 ?172 178 354 376 0 0 1 31 197 148 0 178 376 378 0 +0 0 0 0 1 0 0 0 1 .03 30 3
78 147 0 196 197 206 0 +-.01185660171779822 0 .00395866084749685 .86602540378443
9 0 -.5 16 196 554 0 ?175 365 178 378 0 0 1 31 206 5 0 200 378 207 0 +0 .004 0 0
 1 0 0 0 1 .04 17 175 0 170 134 158 153 379 196 0 0 +17 134 0 170 377 175 132 15
5 265 0 380 +17 158 0 170 175 171 156 167 261 0 379 +17 379 0 381 152 210 156 17
5 196 0 382 -15 381 128 0 379 383 0 17 152 0 381 375 379 150 382 211 0 384 +17 2
10 0 381 379 375 153 385 202 0 175 +17 382 0 386 167 387 156 152 211 0 0 -15 386
 955 0 387 388 0 17 167 0 386 194 382 165 158 261 0 189 -17 387 0 386 382 194 15
0 161 186 0 0 -17 194 0 386 387 167 159 189 195 0 0 -17 161 0 389 193 384 159 38
7 186 0 190 +15 389 57 0 390 12 391 17 193 0 389 137 161 162 190 371 0 198 -17 3
84 0 389 161 149 150 375 373 0 387 -17 190 0 188 189 164 159 193 371 0 194 +17 1
49 0 389 384 392 147 393 267 0 375 +17 375 0 381 210 152 147 384 373 0 385 +17 3
85 0 394 393 155 147 210 202 0 0 -15 394 997 0 393 395 0 17 393 0 394 396 385 12
6 149 267 0 0 -17 155 0 394 385 396 153 134 265 0 210 -17 396 0 394 155 393 132
 128 220 0 0 -17 128 0 397 367 380 126 396 220 0 392 +15 397 116 0 380 398 0 17
 367 0 397 219 128 123 392 365 0 399 +17 380 0 397 128 219 132 377 354 0 396 -17
 392 0 389 149 125 126 367 365 0 393 -17 125 0 389 392 390 123 400 271 0 367 +17
 390 0 389 125 137 138 370 368 0 400 -17 400 0 401 402 399 138 125 271 0 0 -15 4
01 1018 0 400 403 0 17 402 0 401 131 400 144 140 213 0 0 -17 399 0 401 400 131 1
23 219 217 0 0 -17 131 0 401 399 402 129 146 269 0 219 -17 219 0 397 380 367 129
 399 217 0 377 +17 377 0 170 146 134 129 380 354 0 0 +17 146 0 170 172 377 144 1
31 269 0 179 +17 179 0 404 140 184 144 172 180 0 402 -15 404 120 0 370 405 0 17
 140 0 404 370 179 138 402 213 0 390 +17 184 0 404 179 370 141 182 215 0 172 +17
 370 0 404 184 140 135 390 368 0 182 +17 182 0 181 198 143 135 184 215 0 0 -14 2
55 405 117 406 ?191 398 404 4 407 +0 0 191 398 18 81 255 1 406 1589 408 405 409
 0 0 410 411 14 191 121 410 ?383 405 188 4 412 +0 0 383 405 18 14 398 113 413 ?4
05 414 397 4 415 +0 0 405 414 18 50 255 407 138 0 405 412 415 0 +-.0025 .004 -.0
2989565185775345 -1 0 0 0 0 1 13 18 8 0 0 0 0 0 0 8 12 14 12 372 416 ?176 0 417
 4 418 +0 0 176 0 18 81 1 416 1592 408 12 419 0 413 420 421 14 176 352 420 ?414
 12 422 4 423 -0 0 414 12 18 15 417 1440 0 424 12 425 50 418 2 0 12 415 423 0 +0
 .004 0 0 1 0 0 0 1 51 415 137 0 398 407 418 0 +0 .004 0 0 -1 0 .0125 0 0 -1 50
 423 22 0 176 418 426 0 +0 0 0 0 1 0 0 0 1 51 426 28 0 414 423 427 0 -0 .004 0 0
 -1 0 .04 0 0 -1 14 414 25 428 ?398 176 429 4 426 -0 0 398 176 18 51 427 966 0 3
88 426 430 0 +-.02618350162429225 .004 .00992089928840549 0 -1 0 .002 0 0 -1 14
 388 954 431 ?199 311 386 4 427 -0 0 199 311 18 51 430 987 0 199 427 432 0 +-.00
45 .004 -.02763602721087095 0 -1 0 .002 0 0 -1 14 199 975 433 ?395 388 181 4 430
 -0 0 395 388 18 51 432 1008 0 395 430 434 0 +-.01418733638631332 .004 .00299491
005901514 0 -1 0 .002 0 0 -1 14 395 996 435 ?403 199 394 4 432 -0 0 403 199 18 5
1 434 1029 0 403 432 436 0 +-.0045 .004 -.01378404875209022 0 -1 0 .002 0 0 -1 1
4 403 1017 437 ?438 395 401 4 434 -0 0 438 395 18 51 436 1050 0 438 434 439 0 +.
02618350162429225 .004 .00992089928840549 0 -1 0 .002 0 0 -1 14 438 1038 440 ?44
1 403 442 4 436 -0 0 441 403 18 51 439 1071 0 441 436 443 0 +.02168350162429225
 .004 .01771512792246545 0 -1 0 .002 0 0 -1 14 441 1059 444 ?445 438 446 4 439 -
0 0 445 438 18 51 443 1092 0 445 439 447 0 +.0045 .004 -.02763602721087095 0 -1
 0 .002 0 0 -1 14 445 1080 448 ?449 441 450 4 443 -0 0 449 441 18 51 447 1113 0
 449 443 451 0 +.0045 .004 -.01378404875209022 0 -1 0 .002 0 0 -1 14 449 1101 45
2 ?453 445 454 4 447 -0 0 453 445 18 51 451 1134 0 453 447 455 0 +-.021683501624
29225 .004 .01771512792246545 0 -1 0 .002 0 0 -1 14 453 1122 456 ?457 449 458 4
 451 -0 0 457 449 18 51 455 1155 0 457 451 15 0 +.01418733638631332 .004 .002994
91005901514 0 -1 0 .002 0 0 -1 14 457 1143 459 ?460 453 461 4 455 -0 0 460 453 1
8 51 15 1176 0 460 455 5 0 +.00968733638631333 .004 .0107891386930751 0 -1 0 .00
2 0 0 -1 14 460 1164 462 ?14 457 463 4 15 -0 0 14 457 18 81 1 462 1605 408 460 4
64 0 459 465 466 14 14 1185 465 ?467 460 306 4 5 -0 0 467 460 18 15 463 1165 0 3
17 460 0 17 317 0 463 31 468 21 77 299 0 0 -17 31 0 463 83 317 34 27 32 0 0 -17
 468 0 463 317 83 75 239 237 0 0 -17 77 0 22 469 23 75 317 299 0 323 +15 22 355
 0 469 12 0 17 469 0 22 89 77 78 323 319 0 470 -17 323 0 471 239 80 75 469 319 0
 468 +15 471 418 0 472 473 0 17 239 0 471 472 323 81 468 237 0 333 +17 80 0 471
 323 472 78 474 240 0 469 +17 472 0 471 80 239 84 333 330 0 474 -17 474 0 446 95
 470 84 80 240 0 0 -15 446 1060 0 470 441 0 17 95 0 446 475 474 93 86 277 0 236
 -17 470 0 446 474 475 78 89 279 0 0 -17 475 0 446 470 95 87 236 234 0 0 -17 89
 0 22 476 469 87 470 279 0 477 +17 476 0 22 41 89 90 477 313 0 478 -17 477 0 479
 236 92 87 476 313 0 475 +15 479 414 0 477 480 0 17 236 0 479 481 477 93 475 234
 0 329 +17 92 0 479 477 481 90 482 232 0 476 +16 313 670 0 ?477 319 304 325 0 0
 1 31 325 452 0 313 483 324 0 +0 .004 0 0 1 0 0 0 1 .03 31 483 1348 0 484 485 32
5 0 +215067316655656e-32 .004 -.008 0 1 0 0 0 1 .0015 16 484 1329 0 ?486 331 487
 483 0 0 1 31 485 1349 0 331 488 483 0 +215067316655656e-32 0 -.008 0 1 0 0 0 1
 .0015 16 331 1326 0 ?489 327 484 485 0 0 1 31 488 1388 0 490 491 485 0 +.008 .0
04 0 0 1 0 0 0 1 .0015 16 490 1369 0 ?492 487 493 488 0 0 1 31 491 1389 0 487 49
4 488 0 +.008 0 0 0 1 0 0 0 1 .0015 16 487 1366 0 ?495 484 490 491 0 0 1 31 494
 1428 0 496 497 491 0 +4110108045192325e-33 .004 .008 0 1 0 0 0 1 .0015 16 496 1
409 0 ?498 493 499 494 0 0 1 31 497 1429 0 493 500 494 0 +4110108045192325e-33 0
 .008 0 1 0 0 0 1 .0015 16 493 1406 0 ?501 490 496 497 0 0 1 31 500 1468 0 502 5
03 497 0 +-.008 .004 0 0 1 0 0 0 1 .0015 16 502 1449 0 ?504 499 0 500 0 0 1 31 5
03 1469 0 499 0 500 0 +-.008 0 0 0 1 0 0 0 1 .0015 16 499 1446 0 ?505 496 502 50
3 0 0 1 17 505 0 422 505 505 0 506 499 0 0 +15 422 1432 0 505 176 507 17 506 0 5
08 506 506 0 505 499 0 0 -15 508 1455 0 506 509 510 14 509 1452 511 ?0 512 508 4
 513 -0 0 0 512 18 15 510 1456 0 504 509 0 17 504 0 510 504 504 0 424 502 0 0 +1
7 424 0 417 424 424 0 504 502 0 0 -81 1 511 1607 408 509 514 0 465 515 516 14 51
2 1412 515 ?509 517 518 4 519 -0 0 509 517 18 51 513 1465 0 509 0 519 0 +-.008 0
 0 0 1 0 .0015 0 0 1 51 519 1425 0 512 513 520 0 +4110108045192325e-33 0 .008 0
 1 0 .0015 0 0 1 51 520 1385 0 517 519 521 0 +.008 0 0 0 1 0 .0015 0 0 1 14 517
 1372 522 ?512 467 523 4 520 -0 0 512 467 18 51 521 1345 0 467 520 524 0 +215067
316655656e-32 0 -.008 0 1 0 .0015 0 0 1 14 467 1332 525 ?517 14 526 4 521 -0 0 5
17 14 18 50 524 438 0 311 521 527 0 +-.00935660171779822 .004 .00828878786641904
 .5 0 .866025403784439 .866025403784439 0 -.5 14 311 423 528 ?388 315 309 4 524
 +0 0 388 315 18 51 527 437 0 315 524 529 0 +0 .004 0 0 -1 0 .0125 0 0 -1 14 315
 419 530 ?311 473 29 4 527 +0 0 311 473 18 50 529 436 0 473 527 531 0 +.00935660
171779822 .004 .00828878786641905 -.5 0 .866025403784439 .866025403784439 0 .5 1
4 473 415 532 ?315 480 471 4 529 +0 0 315 480 18 51 531 435 0 480 529 533 0 -0 .
004 0 0 -1 0 .03 0 0 -1 14 480 411 534 ?473 535 479 4 531 +0 0 473 535 18 51 533
 328 0 535 531 536 0 -0 .004 0 0 -1 0 .005 0 0 -1 14 535 315 537 ?480 538 539 4
 533 +0 0 480 538 18 50 536 270 0 538 533 540 0 +.0025 .004 -.02989565185775345
 1 0 0 0 0 -1 14 538 255 541 ?535 542 543 4 536 +0 0 535 542 18 51 540 269 0 542
 536 544 0 -0 .004 0 0 -1 0 .03 0 0 -1 14 542 251 545 ?538 546 547 4 540 +0 0 53
8 546 18 50 544 268 0 546 540 548 0 +.02714039397150995 .004 .01278276241941564
 .5 0 -.866025403784439 -.866025403784439 0 -.5 14 546 247 549 ?542 550 551 4 54
4 +0 0 542 550 18 51 548 267 0 550 544 552 0 +0 .004 0 0 -1 0 .0125 0 0 -1 14 55
0 243 553 ?546 383 554 4 548 +0 0 546 383 18 50 552 140 0 383 548 412 0 +-.01185
660171779822 .004 .00395866084749685 -.5 0 -.866025403784439 -.866025403784439 0
 .5 14 383 125 555 ?550 191 381 4 552 +0 0 550 191 18 51 412 139 0 191 552 407 0
 -0 .004 0 0 -1 0 .03 0 0 -1 81 1 555 1620 408 383 556 0 553 0 557 80 255 1 408
 558 559 9000 1 1 1 1 1 1 1 1 0 FFFFTFTFFFFFFF1 81 1 556 1497 560 383 0 555 561
 562 563 81 1 553 1619 408 550 562 0 549 555 564 82 255 1 557 -766640020 81 1 56
2 1498 560 550 0 553 556 565 566 81 1 549 1618 408 546 565 0 545 553 567 82 1 56
4 -754188180 81 1 565 1499 560 546 0 549 562 568 569 81 1 545 1617 408 542 568 0
 541 549 570 82 1 567 -754450324 81 1 568 1500 560 542 0 545 565 571 572 81 1 54
1 1616 408 538 571 0 537 545 573 82 1 570 -754712468 81 1 571 1501 560 538 0 541
 568 574 575 81 1 537 1615 408 535 574 0 534 541 576 82 1 573 -754974612 81 1 57
4 1502 560 535 0 537 571 577 578 81 1 534 1614 408 480 577 0 532 537 579 82 1 57
6 -749404057 81 1 577 1503 560 480 0 534 574 580 581 81 1 532 1613 408 473 580 0
 530 534 582 82 1 579 -738459540 81 1 580 1504 560 473 0 532 577 583 584 81 1 53
0 1612 408 315 583 0 528 532 585 82 1 582 -738721684 81 1 583 1505 560 315 0 530
 580 586 587 81 1 528 1611 408 311 586 0 525 530 588 82 1 585 -738983828 81 1 58
6 1506 560 311 0 528 583 589 590 81 1 525 1610 408 467 591 0 522 528 592 82 1 58
8 -739245972 81 1 591 1519 560 467 0 525 593 594 595 81 1 522 1609 408 517 594 0
 515 525 596 82 1 592 -1699610512 81 1 594 1520 560 517 0 522 591 597 598 81 1 5
15 1608 408 512 597 0 511 522 599 82 1 596 -1695612816 81 1 597 1521 560 512 0 5
15 594 514 600 82 1 599 -1691680656 80 1 560 0 601 8001 0 0 0 0 3 5 0 0 0 FFFFTF
TFFFFFFF2 81 1 514 1522 560 509 0 511 597 0 602 83 255 3 600 .898039215686275 .9
17647058823529 .929411764705882 83 3 602 .898039215686275 .917647058823529 .9294
11764705882 79 255 15 601 SDL/TYSA_COLOUR83 3 598 .898039215686275 .917647058823
529 .929411764705882 81 1 593 1518 560 14 0 465 464 591 603 83 3 595 .8980392156
86275 .917647058823529 .929411764705882 81 1 465 1606 408 14 593 0 462 511 604 8
1 1 464 1517 560 460 0 462 605 593 606 83 3 603 .898039215686275 .91764705882352
9 .929411764705882 81 1 605 1516 560 457 0 459 607 464 608 83 3 606 .89803921568
6275 .917647058823529 .929411764705882 81 1 459 1604 408 457 605 0 456 462 609 8
1 1 607 1515 560 453 0 456 610 605 611 83 3 608 .898039215686275 .91764705882352
9 .929411764705882 81 1 456 1603 408 453 607 0 452 459 612 81 1 610 1514 560 449
 0 452 613 607 614 83 3 611 .898039215686275 .917647058823529 .929411764705882 8
1 1 452 1602 408 449 610 0 448 456 615 81 1 613 1513 560 445 0 448 616 610 617 8
3 3 614 .898039215686275 .917647058823529 .929411764705882 81 1 448 1601 408 445
 613 0 444 452 618 81 1 616 1512 560 441 0 444 619 613 620 83 3 617 .89803921568
6275 .917647058823529 .929411764705882 81 1 444 1600 408 441 616 0 440 448 621 8
1 1 619 1511 560 438 0 440 622 616 623 83 3 620 .898039215686275 .91764705882352
9 .929411764705882 81 1 440 1599 408 438 619 0 437 444 624 81 1 622 1510 560 403
 0 437 625 619 626 83 3 623 .898039215686275 .917647058823529 .929411764705882 8
1 1 437 1598 408 403 622 0 435 440 627 81 1 625 1509 560 395 0 435 628 622 629 8
3 3 626 .898039215686275 .917647058823529 .929411764705882 81 1 435 1597 408 395
 625 0 433 437 630 81 1 628 1508 560 199 0 433 589 625 631 83 3 629 .89803921568
6275 .917647058823529 .929411764705882 81 1 433 1596 408 199 628 0 431 435 632 8
1 1 589 1507 560 388 0 431 586 628 633 83 3 631 .898039215686275 .91764705882352
9 .929411764705882 81 1 431 1595 408 388 589 0 428 433 634 83 3 633 .89803921568
6275 .917647058823529 .929411764705882 81 1 428 1594 408 414 635 0 420 431 636 8
2 1 634 1247805548 81 1 635 1493 560 414 0 428 637 638 639 81 1 420 1593 408 176
 637 0 416 428 640 82 1 636 -776863641 81 1 637 1492 560 176 0 420 419 635 641 8
2 1 640 -724762512 81 1 419 1491 560 12 0 416 0 637 642 83 3 641 .89803921568627
5 .917647058823529 .929411764705882 83 3 642 .898039215686275 .917647058823529 .
929411764705882 81 1 638 1494 560 398 0 413 635 409 643 83 3 639 .89803921568627
5 .917647058823529 .929411764705882 81 1 413 1591 408 398 638 0 410 416 644 81 1
 409 1495 560 405 0 406 638 561 645 83 3 643 .898039215686275 .917647058823529 .
929411764705882 81 1 561 1496 560 191 0 410 409 556 646 83 3 645 .89803921568627
5 .917647058823529 .929411764705882 81 1 410 1590 408 191 561 0 406 413 647 83 3
 646 .898039215686275 .917647058823529 .929411764705882 82 1 647 -766377876 82 1
 644 -765853588 82 1 632 1249771628 82 1 630 1251737708 82 1 627 1253703788 82 1
 624 1255669868 82 1 621 1257635948 82 1 618 1259602028 82 1 615 1261568108 82 1
 612 1263534188 82 1 609 1265500268 82 1 604 1269432428 83 3 590 .89803921568627
5 .917647058823529 .929411764705882 83 3 587 .898039215686275 .917647058823529 .
929411764705882 83 3 584 .898039215686275 .917647058823529 .929411764705882 83 3
 581 .898039215686275 .917647058823529 .929411764705882 83 3 578 .89803921568627
5 .917647058823529 .929411764705882 83 3 575 .898039215686275 .917647058823529 .
929411764705882 83 3 572 .898039215686275 .917647058823529 .929411764705882 83 3
 569 .898039215686275 .917647058823529 .929411764705882 83 3 566 .89803921568627
5 .917647058823529 .929411764705882 83 3 563 .898039215686275 .917647058823529 .
929411764705882 79 14 559 SWEntUnchanged15 554 246 0 648 550 0 17 648 0 554 56 2
49 60 356 338 0 649 -17 56 0 554 343 648 54 649 250 0 650 +17 249 0 554 648 343
 57 651 247 0 356 +17 356 0 652 122 62 57 648 338 0 0 +17 649 0 454 71 653 60 56
 250 0 0 -15 454 1102 0 653 449 0 17 71 0 454 654 649 69 62 285 0 244 -17 653 0
 454 649 654 54 65 287 0 0 -17 654 0 454 653 71 63 244 242 0 0 -17 65 0 655 656
 650 63 653 287 0 353 +15 655 187 0 657 12 22 17 656 0 655 101 65 66 353 351 0 6
58 -17 650 0 655 65 53 54 343 341 0 653 -17 353 0 543 244 68 63 656 351 0 654 +1
5 543 258 0 659 538 0 17 244 0 543 659 353 69 654 242 0 364 +17 68 0 543 353 659
 66 660 245 0 656 +17 659 0 543 68 244 72 364 345 0 660 -17 660 0 450 107 658 72
 68 245 0 0 -15 450 1081 0 658 445 0 17 107 0 450 661 660 105 74 281 0 229 -17 6
58 0 450 660 661 66 101 283 0 0 -17 661 0 450 658 107 99 229 227 0 0 -17 101 0 6
55 662 656 99 658 283 0 350 +17 662 0 655 113 101 102 350 348 0 663 -17 350 0 54
7 229 104 99 662 348 0 661 +15 547 254 0 664 542 0 17 229 0 547 664 350 105 661
 227 0 362 +17 104 0 547 350 664 102 665 230 0 662 +17 664 0 547 104 229 108 362
 360 0 665 -17 665 0 442 119 663 108 104 230 0 0 -15 442 1039 0 663 438 0 17 119
 0 442 666 665 117 110 273 0 226 -17 663 0 442 665 666 102 113 275 0 0 -17 666 0
 442 663 119 111 226 224 0 0 -17 113 0 655 657 662 111 663 275 0 347 +17 657 0 6
55 53 113 114 347 344 0 667 -17 347 0 551 226 116 111 657 344 0 666 +15 551 250
 0 347 546 0 17 226 0 551 668 347 117 666 224 0 359 +17 116 0 551 347 668 114 66
9 222 0 657 +17 668 0 551 116 226 120 359 357 0 669 -17 669 0 461 59 667 120 116
 222 0 0 -15 461 1144 0 667 457 0 17 59 0 461 651 669 57 122 293 0 249 -17 667 0
 461 669 651 114 53 295 0 0 -17 651 0 461 667 59 51 249 247 0 0 -17 53 0 655 650
 657 51 667 295 0 343 +17 343 0 554 249 56 51 650 341 0 651 +17 122 0 652 359 35
6 120 59 293 0 668 +15 652 182 0 364 176 300 17 359 0 652 110 122 117 668 357 0
 0 +17 110 0 652 362 359 108 119 273 0 664 +17 362 0 652 74 110 105 664 360 0 0
 +17 74 0 652 364 362 72 107 281 0 659 +17 364 0 652 62 74 69 659 345 0 0 +17 62
 0 652 356 364 60 71 285 0 648 +15 539 318 0 337 535 670 17 337 0 539 337 337 0
 671 335 0 0 +15 670 319 0 672 535 0 17 672 0 670 672 672 0 340 321 0 0 -17 340
 0 673 340 340 0 672 321 0 0 +15 673 298 0 340 176 170 17 671 0 674 671 671 0 33
7 335 0 0 -15 674 303 0 671 12 389 15 526 1335 0 675 467 676 17 675 0 526 675 67
5 0 489 331 0 0 -15 676 1336 0 486 467 0 17 486 0 676 486 486 0 677 484 0 0 +17
 677 0 678 677 677 0 486 484 0 0 -15 678 1320 0 677 12 674 17 489 0 679 489 489
 0 675 331 0 0 +15 679 1312 0 489 176 673 15 523 1375 0 680 517 681 17 680 0 523
 680 680 0 495 487 0 0 -15 681 1376 0 492 517 0 17 492 0 681 492 492 0 682 490 0
 0 +17 682 0 683 682 682 0 492 490 0 0 -15 683 1360 0 682 12 678 17 495 0 684 49
5 495 0 680 487 0 0 +15 684 1352 0 495 176 679 15 518 1415 0 685 512 686 17 685
 0 518 685 685 0 501 493 0 0 -15 686 1416 0 498 512 0 17 498 0 686 498 498 0 687
 496 0 0 +17 687 0 425 687 687 0 498 496 0 0 -15 425 1400 0 687 12 683 17 501 0
 507 501 501 0 685 493 0 0 +15 507 1392 0 501 176 684 82 1 516 -1687748496 17 48
1 0 479 92 236 96 329 327 0 482 -17 482 0 458 47 478 96 92 232 0 0 -15 458 1123
 0 478 453 0 17 47 0 458 312 482 45 98 289 0 256 -17 478 0 458 482 312 90 41 291
 0 0 -17 312 0 458 478 47 39 256 254 0 0 -17 41 0 22 24 476 39 478 291 0 310 +17
 24 0 22 19 41 42 310 318 0 25 -17 310 0 309 256 44 39 24 318 0 312 +17 98 0 300
 329 301 96 47 289 0 481 +17 329 0 300 86 98 93 481 327 0 0 +17 86 0 300 333 329
 84 95 277 0 472 +17 333 0 300 38 86 81 472 330 0 0 +17 38 0 300 302 333 34 83 2
97 0 30 +17 83 0 463 468 31 81 38 297 0 239 -82 1 466 1267466348 15 429 24 0 688
 414 689 17 688 0 429 688 688 0 204 200 0 0 -15 689 26 0 690 414 0 17 690 0 689
 690 690 0 691 205 0 0 +17 691 0 177 691 691 0 690 205 0 0 -16 205 18 0 ?690 200
 373 207 0 0 1 15 177 17 0 691 176 652 17 204 0 391 204 204 0 688 200 0 0 +15 39
1 3 0 204 12 655 82 1 421 -722927504 82 1 411 -766115732 17 137 0 389 390 193 13
5 198 185 0 370 +19 13 30 0 1 0 8 4 S74 4 CI16 index_map_offset0 0 1 dCCZ20 11 2
 0 0 555 514 0 0 0 0 0 0 0 0 0 0 0 0 0 0 0 0 0 0 1 0 
